<?xml version="1.0" encoding="UTF-8" standalone="no"?>
<svg
   xmlns:dc="http://purl.org/dc/elements/1.1/"
   xmlns:cc="http://creativecommons.org/ns#"
   xmlns:rdf="http://www.w3.org/1999/02/22-rdf-syntax-ns#"
   xmlns:svg="http://www.w3.org/2000/svg"
   xmlns="http://www.w3.org/2000/svg"
   viewBox="0 0 138.46196 138.67682"
   height="138.67682"
   width="138.46196"
   version="1.1"
   id="svg3806">
  <metadata
     id="metadata3812">
    <rdf:RDF>
      <cc:Work
         rdf:about="">
        <dc:format>image/svg+xml</dc:format>
        <dc:type
           rdf:resource="http://purl.org/dc/dcmitype/StillImage" />
        <dc:title></dc:title>
      </cc:Work>
    </rdf:RDF>
  </metadata>
  <defs
     id="defs3810" />
  <path
     id="path3816"
     d="m 65.740656,136.7213 c -2.92569,-2.2885 -4.21667,-2.41271 -8.60052,-0.82749 -2.9966,1.08358 -3.50905,0.93847 -6.75717,-1.91341 -3.01893,-2.65066 -4.07366,-3.01093 -7.47799,-2.55431 -3.55064,0.47624 -4.14874,0.23293 -5.74386,-2.3366 -2.59646,-4.18256 -4.39494,-5.36819 -8.14298,-5.36819 -2.31511,0 -3.50091,-0.53709 -3.86372,-1.75 -1.36005,-4.54674 -3.22994,-6.83074 -6.44751,-7.87538 -2.50636,-0.81373 -3.54378,-1.78297 -3.74621,-3.5 -0.63923,-5.42208 -1.38037,-6.77166 -4.83951,-8.81261 -3.4219897,-2.019025 -3.6016097,-2.377095 -3.0933297,-6.166581 0.4652,-3.468354 0.11794,-4.503346 -2.51843,-7.506005 -2.9678,-3.380136 -3.01872,-3.602057 -1.72552,-7.52049 0.9414,-2.852474 1.02968,-4.526486 0.30076,-5.703257 -0.56747,-0.916124 -1.624,-2.620118 -2.34785996,-3.786654 -1.14094,-1.838704 -1.02863,-2.524674 0.84387996,-5.154371 2.48848,-3.49475 2.58926,-4.395464 0.98746,-8.825168 -1.08359,-2.996605 -0.93848,-3.509053 1.9134,-6.757168 2.66497,-3.035226 3.01231,-4.063447 2.54631,-7.537751 -0.50747,-3.783417 -0.32538,-4.149496 3.0564697,-6.144837 2.78188,-1.641346 3.73376,-2.952468 4.20412,-5.790738 0.92082,-5.556439 1.2384,-6.168993 3.19831,-6.168993 2.95364,0 6.16249,-2.866742 7.04602,-6.29481 0.61167,-2.373244 1.45965,-3.277856 3.26698,-3.485145 5.47332,-0.627754 6.83027,-1.36737 8.87888,-4.839513 2.01903,-3.4219907 2.3771,-3.6016087 6.16658,-3.0933327 3.46836,0.465204 4.50335,0.117942 7.50601,-2.518427 3.38013,-2.967799 3.60206,-3.018717 7.52049,-1.725518 3.14992,1.039569 4.45874,1.071366 5.95326,0.144633 1.05362,-0.653338 2.75761,-1.709873 3.78665,-2.34785503 1.52046,-0.94266 2.43926,-0.75532 4.90437,0.99999903 3.49475,2.488482 4.39546,2.589264 8.82517,0.987462 2.9966,-1.083586 3.50905,-0.938478 6.75717,1.913405 3.03522,2.664964 4.06344,3.012304 7.53775,2.546301 3.78949,-0.508276 4.14756,-0.328658 6.166584,3.0933327 2.04095,3.459145 3.39053,4.200281 8.81261,4.839513 1.71703,0.202428 2.68627,1.239852 3.5,3.746208 1.04464,3.217569 3.32863,5.087462 7.87537,6.447508 1.21291,0.362814 1.75,1.548613 1.75,3.863725 0,3.748042 1.18563,5.546514 5.36819,8.142978 2.56953,1.595119 2.81284,2.193225 2.3366,5.74386 -0.45662,3.404326 -0.0964,4.459063 2.55431,7.477995 2.85188,3.248115 2.99699,3.760563 1.91341,6.757168 -1.60181,4.429704 -1.50102,5.330418 0.98746,8.825168 1.75532,2.465115 1.94266,3.383908 1,4.904371 -0.63798,1.029036 -1.69452,2.73303 -2.34786,3.786654 -0.92673,1.49452 -0.89493,2.803333 0.14464,5.953257 1.29319,3.918433 1.24228,4.140354 -1.72552,7.52049 -2.63637,3.002659 -2.98363,4.037651 -2.51843,7.506005 0.50828,3.789486 0.32866,4.147556 -3.09333,6.166581 -3.47215,2.04862 -4.21176,3.40556 -4.83952,8.87888 -0.20728,1.80733 -1.1119,2.65532 -3.48514,3.26698 -3.42806,0.88353 -6.2948,4.09239 -6.2948,7.04602 0,1.95992 -0.61255,2.27749 -6.16899,3.19831 -2.83827,0.47036 -4.1494,1.42225 -5.79074,4.20412 -1.995344,3.38185 -2.361424,3.56394 -6.144844,3.05648 -3.47431,-0.466 -4.50253,-0.11866 -7.53775,2.5463 -3.24812,2.85188 -3.76057,2.99699 -6.75717,1.91341 -4.38385,-1.58522 -5.67483,-1.46101 -8.60051,0.82749 -1.375,1.07554 -2.95,1.95553 -3.5,1.95553 -0.55,0 -2.125,-0.87999 -3.5,-1.95553 z"
     style="fill:#515151" />
</svg>
